<svg width="21" height="18" viewBox="0 0 15 17" fill="currentColor" xmlns="http://www.w3.org/2000/svg">
<path fill-rule="evenodd" clip-rule="evenodd" d="M7.27216 0.968224C9.2095 0.310173 10.4198 -0.0165501 12.081 -0.338673C12.6919 -0.456699 12.8132 -0.485691 12.915 -0.453304C12.9481 -0.442759 12.9791 -0.425705 13.0243 -0.403097C13.1624 -0.338673 13.3235 -0.108585 13.3235 0.0248642C13.3235 0.0478745 13.0335 0.871586 12.6792 1.85176L12.035 3.63263L13.1118 4.74165C13.7054 5.34908 14.3174 5.97032 14.4693 6.12218C14.704 6.34306 14.75 6.41669 14.75 6.54554C14.75 6.89527 14.5981 7.02872 14.1058 7.11616C12.6194 7.36925 11.0594 7.77881 9.25091 8.38164C8.39039 8.67155 7.48845 8.95685 7.24915 9.02128C6.26898 9.27898 4.96669 9.48145 3.90369 9.53667C3.42971 9.56428 3.33767 9.58269 3.33767 9.64251C3.33767 9.68393 3.669 11.2393 4.06935 13.1076C4.4697 14.9713 4.78722 16.5497 4.77802 16.6142C4.74581 16.766 4.57094 16.9501 4.41908 16.9915C4.24422 17.0329 3.97731 16.9179 3.88528 16.7568C3.84386 16.6786 3.49413 15.1462 3.10758 13.3515C2.72564 11.5522 2.10901 8.73597 1.74087 7.09315C1.52845 6.13054 1.30974 5.14908 1.14535 4.41132C1.02839 3.88646 0.938917 3.48495 0.898746 3.30131C0.733084 2.57423 0.72388 2.4868 0.783703 2.34875C0.894145 2.08185 0.967773 2.05884 2.04918 2.00822C4.06475 1.91618 5.05872 1.71831 7.27216 0.968224Z" fill="#919698"/>
</svg>
