<svg width="21" height="18" viewBox="0 0 19 18" fill="currentColor" xmlns="http://www.w3.org/2000/svg">
<path d="M16.0844 0.0562744C15.6309 0.165258 15.5676 0.22151 13.5145 2.35901C12.4668 3.44885 11.5914 4.34534 11.5738 4.35237C11.5527 4.3594 9.67539 3.74768 7.39727 2.99182C5.11914 2.23948 3.10117 1.56799 2.91133 1.50823L2.5668 1.39221L1.62812 2.33088C1.03047 2.92854 0.703516 3.2801 0.724609 3.3012C0.745703 3.31878 2.42266 4.35588 4.45117 5.60745C6.4832 6.85549 8.14609 7.88909 8.15312 7.90315C8.16367 7.93831 4.43711 11.8266 4.38086 11.8406C4.35977 11.8442 3.8043 11.7633 3.15039 11.6543L1.95508 11.461L1.1043 12.3117L0.25 13.166L2.03945 13.7953L3.82891 14.4211L4.45469 16.2106L5.08047 18.0035L5.93828 17.1457L6.79258 16.2914L6.5957 15.1172C6.48672 14.4703 6.40234 13.9184 6.40937 13.8867C6.41992 13.8199 10.3047 10.0828 10.3469 10.0969C10.3609 10.1039 11.3945 11.7668 12.6426 13.7989C13.8941 15.8274 14.9312 17.5043 14.9488 17.5254C14.9699 17.5465 15.318 17.2231 15.9191 16.6219L16.8543 15.6867L15.3742 11.2043C14.5586 8.73987 13.8906 6.71135 13.8906 6.69378C13.8906 6.6762 14.7801 5.80784 15.8629 4.76721C17.2656 3.42073 17.8773 2.80901 17.9723 2.66135C18.5242 1.81057 18.1973 0.639868 17.2867 0.193384C16.8895 -0.00349045 16.5133 -0.0456791 16.0844 0.0562744Z" fill="#919698"/>
</svg>
