<svg width="21" height="18" viewBox="0 0 21 18" fill="currentColor" xmlns="http://www.w3.org/2000/svg">
<path d="M19.6875 2.25C19.9983 2.25 20.25 1.99828 20.25 1.6875V0.5625C20.25 0.251719 19.9983 0 19.6875 0H0.5625C0.251719 0 0 0.251719 0 0.5625V1.6875C0 1.99828 0.251719 2.25 0.5625 2.25H1.1243V15.75H0.5625C0.251719 15.75 0 16.0017 0 16.3125V17.4375C0 17.7483 0.251719 18 0.5625 18H9V15.1875C9 14.8781 9.25313 14.625 9.5625 14.625H10.6875C10.9969 14.625 11.25 14.8781 11.25 15.1875V18H19.6875C19.9983 18 20.25 17.7483 20.25 17.4375V16.3125C20.25 16.0017 19.9983 15.75 19.6875 15.75H19.125V2.25H19.6875ZM9 3.825C9 3.6 9.225 3.375 9.45 3.375H10.8C11.025 3.375 11.25 3.6 11.25 3.825V5.175C11.25 5.4 11.025 5.625 10.8 5.625H9.45C9.225 5.625 9 5.4 9 5.175V3.825ZM9 7.2C9 6.975 9.225 6.75 9.45 6.75H10.8C11.025 6.75 11.25 6.975 11.25 7.2V8.55C11.25 8.775 11.025 9 10.8 9H9.45C9.225 9 9 8.775 9 8.55V7.2ZM4.5 3.825C4.5 3.6 4.725 3.375 4.95 3.375H6.3C6.525 3.375 6.75 3.6 6.75 3.825V5.175C6.75 5.4 6.525 5.625 6.3 5.625H4.95C4.725 5.625 4.5 5.4 4.5 5.175V3.825ZM6.3 9H4.95C4.725 9 4.5 8.775 4.5 8.55V7.2C4.5 6.975 4.725 6.75 4.95 6.75H6.3C6.525 6.75 6.75 6.975 6.75 7.2V8.55C6.75 8.775 6.525 9 6.3 9ZM6.75 13.5C6.75 11.636 8.26102 10.125 10.125 10.125C11.989 10.125 13.5 11.636 13.5 13.5H6.75ZM15.75 8.55C15.75 8.775 15.525 9 15.3 9H13.95C13.725 9 13.5 8.775 13.5 8.55V7.2C13.5 6.975 13.725 6.75 13.95 6.75H15.3C15.525 6.75 15.75 6.975 15.75 7.2V8.55ZM15.75 5.175C15.75 5.4 15.525 5.625 15.3 5.625H13.95C13.725 5.625 13.5 5.4 13.5 5.175V3.825C13.5 3.6 13.725 3.375 13.95 3.375H15.3C15.525 3.375 15.75 3.6 15.75 3.825V5.175Z" fill="#919698"/>
</svg>
