<svg width="21" height="18" viewBox="0 0 25 18" fill="currentColor" xmlns="http://www.w3.org/2000/svg">
<path d="M23.6869 5.25H20.8805L20.1005 3.3C19.2989 1.29516 17.3859 0 15.2264 0H9.27327C7.11421 0 5.20077 1.29516 4.39874 3.3L3.61874 5.25H0.812798C0.446705 5.25 0.178111 5.59406 0.267173 5.94891L0.548423 7.07391C0.610767 7.32422 0.835767 7.5 1.09405 7.5H2.03483C1.4053 8.04984 0.99983 8.84906 0.99983 9.75V12C0.99983 12.7556 1.28858 13.4377 1.74983 13.9655V16.5C1.74983 17.3283 2.42155 18 3.24983 18H4.74983C5.57811 18 6.24983 17.3283 6.24983 16.5V15H18.2498V16.5C18.2498 17.3283 18.9216 18 19.7498 18H21.2498C22.0781 18 22.7498 17.3283 22.7498 16.5V13.9655C23.2111 13.4381 23.4998 12.7561 23.4998 12V9.75C23.4998 8.84906 23.0944 8.04984 22.4653 7.5H23.4061C23.6644 7.5 23.8894 7.32422 23.9517 7.07391L24.233 5.94891C24.3216 5.59406 24.053 5.25 23.6869 5.25ZM7.18405 4.41422C7.52577 3.56016 8.35311 3 9.27327 3H15.2264C16.1466 3 16.9739 3.56016 17.3156 4.41422L18.2498 6.75H6.24983L7.18405 4.41422ZM4.74983 11.9906C3.84983 11.9906 3.24983 11.3925 3.24983 10.4953C3.24983 9.59812 3.84983 9 4.74983 9C5.64983 9 6.99983 10.3458 6.99983 11.243C6.99983 12.1402 5.64983 11.9906 4.74983 11.9906ZM19.7498 11.9906C18.8498 11.9906 17.4998 12.1402 17.4998 11.243C17.4998 10.3458 18.8498 9 19.7498 9C20.6498 9 21.2498 9.59812 21.2498 10.4953C21.2498 11.3925 20.6498 11.9906 19.7498 11.9906Z" fill="#009FE3"/>
</svg>
