<svg width="18" height="19" viewBox="0 0 18 19" fill="none" xmlns="http://www.w3.org/2000/svg">
<path fill-rule="evenodd" clip-rule="evenodd" d="M6.21716 2.7905C6.93695 2.75736 7.16645 2.75 9 2.75C10.8335 2.75 11.063 2.75798 11.7822 2.7905C12.5014 2.82302 12.9923 2.93777 13.4219 3.10407C13.8717 3.27405 14.2797 3.53975 14.6172 3.88339C14.9609 4.22027 15.226 4.62773 15.3953 5.07814C15.5622 5.50768 15.6764 5.99859 15.7095 6.71655C15.7426 7.43757 15.75 7.66707 15.75 9.5C15.75 11.3335 15.742 11.563 15.7095 12.2828C15.677 13.0008 15.5622 13.4917 15.3953 13.9213C15.226 14.3717 14.9604 14.7799 14.6172 15.1172C14.2797 15.4609 13.8717 15.726 13.4219 15.8953C12.9923 16.0622 12.5014 16.1764 11.7835 16.2095C11.063 16.2426 10.8335 16.25 9 16.25C7.16645 16.25 6.93695 16.242 6.21716 16.2095C5.4992 16.177 5.0083 16.0622 4.57875 15.8953C4.12829 15.7259 3.72016 15.4604 3.38277 15.1172C3.03937 14.7801 2.77362 14.3722 2.60407 13.9219C2.43777 13.4923 2.32364 13.0014 2.2905 12.2835C2.25736 11.5624 2.25 11.3329 2.25 9.5C2.25 7.66645 2.25798 7.43695 2.2905 6.71777C2.32302 5.99859 2.43777 5.50768 2.60407 5.07814C2.77388 4.62778 3.03982 4.21985 3.38339 3.88277C3.7203 3.53944 4.12802 3.2737 4.57814 3.10407C5.00768 2.93777 5.49859 2.82364 6.21655 2.7905H6.21716ZM11.7276 4.0055C11.0158 3.97298 10.8022 3.96623 9 3.96623C7.19775 3.96623 6.9842 3.97298 6.27239 4.0055C5.61395 4.03557 5.25682 4.14541 5.01873 4.23807C4.70393 4.3608 4.47873 4.50623 4.24248 4.74248C4.01853 4.96035 3.84618 5.22558 3.73807 5.51873C3.64541 5.75682 3.53557 6.11395 3.5055 6.77239C3.47298 7.4842 3.46623 7.69775 3.46623 9.5C3.46623 11.3022 3.47298 11.5158 3.5055 12.2276C3.53557 12.886 3.64541 13.2432 3.73807 13.4813C3.84607 13.774 4.0185 14.0397 4.24248 14.2575C4.46032 14.4815 4.72602 14.6539 5.01873 14.7619C5.25682 14.8546 5.61395 14.9644 6.27239 14.9945C6.9842 15.027 7.19714 15.0338 9 15.0338C10.8029 15.0338 11.0158 15.027 11.7276 14.9945C12.386 14.9644 12.7432 14.8546 12.9813 14.7619C13.2961 14.6392 13.5213 14.4938 13.7575 14.2575C13.9815 14.0397 14.1539 13.774 14.2619 13.4813C14.3546 13.2432 14.4644 12.886 14.4945 12.2276C14.527 11.5158 14.5338 11.3022 14.5338 9.5C14.5338 7.69775 14.527 7.4842 14.4945 6.77239C14.4644 6.11395 14.3546 5.75682 14.2619 5.51873C14.1392 5.20393 13.9938 4.97873 13.7575 4.74248C13.5396 4.51854 13.2744 4.3462 12.9813 4.23807C12.7432 4.14541 12.386 4.03557 11.7276 4.0055ZM8.13784 11.5808C8.61934 11.7813 9.15548 11.8083 9.65471 11.6574C10.1539 11.5064 10.5853 11.1868 10.875 10.7532C11.1648 10.3196 11.295 9.79876 11.2435 9.27977C11.1919 8.76078 10.9618 8.27578 10.5924 7.90761C10.3569 7.67227 10.0722 7.49207 9.75866 7.37998C9.44516 7.26789 9.11072 7.2267 8.7794 7.25938C8.44807 7.29206 8.12812 7.39779 7.84256 7.56897C7.55701 7.74014 7.31296 7.9725 7.12798 8.24932C6.94301 8.52613 6.82171 8.84052 6.77282 9.16984C6.72393 9.49916 6.74866 9.83523 6.84524 10.1538C6.94182 10.4725 7.10784 10.7657 7.33135 11.0124C7.55486 11.2592 7.8303 11.4533 8.13784 11.5808ZM6.54668 7.04668C6.86886 6.72451 7.25133 6.46895 7.67227 6.29459C8.09321 6.12023 8.54438 6.03048 9 6.03048C9.45562 6.03048 9.90679 6.12023 10.3277 6.29459C10.7487 6.46894 11.1311 6.72451 11.4533 7.04668C11.7755 7.36886 12.0311 7.75133 12.2054 8.17227C12.3798 8.59321 12.4695 9.04438 12.4695 9.5C12.4695 9.95562 12.3798 10.4068 12.2054 10.8277C12.0311 11.2487 11.7755 11.6311 11.4533 11.9533C10.8027 12.604 9.92017 12.9695 9 12.9695C8.07983 12.9695 7.19734 12.604 6.54668 11.9533C5.89602 11.3027 5.53048 10.4202 5.53048 9.5C5.53048 8.57983 5.89602 7.69734 6.54668 7.04668ZM13.239 6.54718C13.3188 6.47187 13.3828 6.3813 13.427 6.28085C13.4712 6.18039 13.4948 6.07209 13.4964 5.96234C13.498 5.8526 13.4775 5.74365 13.4363 5.64195C13.395 5.54025 13.3338 5.44786 13.2562 5.37025C13.1786 5.29264 13.0862 5.2314 12.9845 5.19014C12.8828 5.14888 12.7738 5.12844 12.6641 5.13004C12.5543 5.13164 12.446 5.15524 12.3456 5.19945C12.2451 5.24366 12.1545 5.30757 12.0792 5.38741C11.9328 5.54268 11.8526 5.74892 11.8557 5.96234C11.8588 6.17577 11.945 6.37958 12.0959 6.53052C12.2468 6.68145 12.4506 6.76762 12.6641 6.77073C12.8775 6.77384 13.0837 6.69365 13.239 6.54718Z" fill="white"/>
</svg>
