<svg width="19" height="19" viewBox="0 0 19 19" fill="none" xmlns="http://www.w3.org/2000/svg">
<path d="M7.05124 16.2545C6.57964 16.2289 6.13585 16.0233 5.8115 15.68C5.42344 15.3067 5.07715 14.8922 4.77875 14.444C4.3126 13.7765 3.94414 13.0459 3.6845 12.2742C3.39065 11.4441 3.23606 10.5711 3.22699 9.69049C3.20417 8.82645 3.41814 7.97264 3.84575 7.22149C4.15893 6.68006 4.60564 6.22793 5.14325 5.90824C5.67491 5.58991 6.28161 5.41856 6.90124 5.41174C7.36836 5.43937 7.82739 5.54614 8.25875 5.72749C8.603 5.87899 8.9645 5.98549 9.33575 6.04399C9.74526 5.9582 10.1454 5.8326 10.5305 5.66899C10.9862 5.49104 11.4688 5.39138 11.9577 5.37424C12.023 5.37424 12.0875 5.37424 12.1497 5.38174C13.2222 5.41249 14.2197 5.93899 14.8497 6.80674C14.3581 7.06971 13.9489 7.46388 13.6679 7.94543C13.3868 8.42698 13.2447 8.97705 13.2575 9.53449C13.2526 9.96074 13.3381 10.3832 13.5083 10.774C13.6786 11.1648 13.9298 11.5151 14.2452 11.8017C14.5325 12.0753 14.8669 12.2946 15.2322 12.449C15.1572 12.674 15.071 12.8915 14.9795 13.1105C14.7718 13.5944 14.5154 14.056 14.2145 14.4882C13.9299 14.9212 13.5987 15.3216 13.2267 15.6822C12.8875 16.0189 12.4352 16.2175 11.9577 16.2395C11.553 16.2216 11.1554 16.1266 10.7862 15.9597C10.3881 15.7863 9.96033 15.6913 9.52624 15.68C9.07992 15.6888 8.63943 15.7832 8.22874 15.9582C7.87403 16.1183 7.49506 16.2179 7.10749 16.253L7.05124 16.2545V16.2545ZM9.41375 5.37424C9.3575 5.37424 9.30124 5.37424 9.24499 5.36749C9.23316 5.27821 9.2269 5.18829 9.22625 5.09824C9.25078 4.34909 9.54355 3.63366 10.0512 3.08224C10.3352 2.76533 10.6794 2.50808 11.0637 2.32549C11.4219 2.1411 11.8133 2.03018 12.215 1.99924C12.2262 2.09749 12.2262 2.19349 12.2262 2.28499C12.2157 3.02236 11.9386 3.73101 11.4462 4.27999C11.2078 4.59965 10.9024 4.86326 10.5512 5.0523C10.2001 5.24133 9.81186 5.35122 9.41375 5.37424V5.37424Z" fill="white"/>
</svg>
