<svg width="19" height="19" viewBox="0 0 19 19" fill="none" xmlns="http://www.w3.org/2000/svg">
<path d="M6.2497 5.63011C6.33624 5.63011 6.41061 5.59901 6.47281 5.53681C6.53501 5.47461 6.56611 5.40024 6.56611 5.3137C6.56611 5.22716 6.53501 5.15279 6.47281 5.0906C6.41061 5.0284 6.33624 4.9973 6.2497 4.9973C6.16316 4.9973 6.09014 5.0284 6.03065 5.0906C5.97115 5.15279 5.94141 5.22716 5.94141 5.3137C5.94141 5.40024 5.97115 5.47461 6.03065 5.53681C6.09014 5.59901 6.16316 5.63011 6.2497 5.63011ZM9.67338 5.63011C9.75992 5.63011 9.83293 5.59901 9.89243 5.53681C9.95192 5.47461 9.98167 5.40024 9.98167 5.3137C9.98167 5.22716 9.95192 5.15279 9.89243 5.0906C9.83293 5.0284 9.75992 4.9973 9.67338 4.9973C9.58684 4.9973 9.51247 5.0284 9.45027 5.0906C9.38807 5.15279 9.35697 5.22716 9.35697 5.3137C9.35697 5.40024 9.38807 5.47461 9.45027 5.53681C9.51247 5.59901 9.58684 5.63011 9.67338 5.63011ZM3.08564 7.1229C3.3128 7.1229 3.50751 7.20403 3.66977 7.36629C3.83203 7.52855 3.91316 7.72326 3.91316 7.95042V11.439C3.91316 11.6716 3.83338 11.869 3.67383 12.0312C3.51427 12.1935 3.31821 12.2746 3.08564 12.2746C2.85306 12.2746 2.65565 12.1935 2.49339 12.0312C2.33113 11.869 2.25 11.6716 2.25 11.439V7.95042C2.25 7.72326 2.33113 7.52855 2.49339 7.36629C2.65565 7.20403 2.85306 7.1229 3.08564 7.1229ZM11.6854 7.27704V12.6803C11.6854 12.9291 11.5989 13.14 11.4258 13.3131C11.2527 13.4862 11.0445 13.5727 10.8011 13.5727H10.1926V15.4144C10.1926 15.6469 10.1115 15.8444 9.94922 16.0066C9.78696 16.1689 9.58954 16.25 9.35697 16.25C9.1244 16.25 8.92698 16.1689 8.76472 16.0066C8.60246 15.8444 8.52133 15.6469 8.52133 15.4144V13.5727H7.40174V15.4144C7.40174 15.6469 7.32061 15.8444 7.15835 16.0066C6.99609 16.1689 6.79868 16.25 6.56611 16.25C6.33894 16.25 6.14423 16.1689 5.98197 16.0066C5.81971 15.8444 5.73858 15.6469 5.73858 15.4144L5.73047 13.5727H5.13011C4.88131 13.5727 4.67037 13.4862 4.4973 13.3131C4.32422 13.14 4.23768 12.9291 4.23768 12.6803V7.27704H11.6854ZM9.80318 3.99129C10.3819 4.28876 10.8443 4.70388 11.1905 5.23663C11.5367 5.76938 11.7097 6.35216 11.7097 6.98498H4.20523C4.20523 6.35216 4.37831 5.76938 4.72446 5.23663C5.07061 4.70388 5.53576 4.28876 6.11989 3.99129L5.54387 2.92849C5.50601 2.85817 5.51953 2.80409 5.58443 2.76623C5.65475 2.73377 5.70883 2.75 5.74669 2.8149L6.33083 3.88582C6.84465 3.65865 7.38822 3.54507 7.96154 3.54507C8.53486 3.54507 9.07842 3.65865 9.59225 3.88582L10.1764 2.8149C10.2142 2.75 10.2683 2.73377 10.3386 2.76623C10.4035 2.80409 10.4171 2.85817 10.3792 2.92849L9.80318 3.99129ZM13.6731 7.95042V11.439C13.6731 11.6716 13.5919 11.869 13.4297 12.0312C13.2674 12.1935 13.07 12.2746 12.8374 12.2746C12.6103 12.2746 12.4156 12.1935 12.2533 12.0312C12.091 11.869 12.0099 11.6716 12.0099 11.439V7.95042C12.0099 7.71785 12.091 7.52178 12.2533 7.36223C12.4156 7.20267 12.6103 7.1229 12.8374 7.1229C13.07 7.1229 13.2674 7.20267 13.4297 7.36223C13.5919 7.52178 13.6731 7.71785 13.6731 7.95042Z" fill="white"/>
</svg>
